<mxfile host="Electron" modified="2024-05-30T13:52:15.287Z" agent="Mozilla/5.0 (Windows NT 10.0; Win64; x64) AppleWebKit/537.36 (KHTML, like Gecko) draw.io/24.4.8 Chrome/124.0.6367.207 Electron/30.0.6 Safari/537.36" etag="JIDY2xvTenjQWRJ53DCa" version="24.4.8" type="device">
  <diagram name="Page-1" id="80d4a630-b321-0f5e-ff81-c5a36ef4752d">
    <mxGraphModel dx="1036" dy="614" grid="1" gridSize="10" guides="1" tooltips="1" connect="1" arrows="1" fold="1" page="1" pageScale="1" pageWidth="1100" pageHeight="850" background="none" math="0" shadow="0">
      <root>
        <mxCell id="0" />
        <mxCell id="1" parent="0" />
        <mxCell id="-cAsw4MHfbUnXaxIR6gj-1" value="" style="fontColor=#0066CC;verticalAlign=top;verticalLabelPosition=bottom;labelPosition=center;align=center;html=1;outlineConnect=0;fillColor=#CCCCCC;strokeColor=#6881B3;gradientColor=none;gradientDirection=north;strokeWidth=2;shape=mxgraph.networks.pc;" vertex="1" parent="1">
          <mxGeometry x="1240" y="70" width="100" height="70" as="geometry" />
        </mxCell>
        <mxCell id="-cAsw4MHfbUnXaxIR6gj-2" value="" style="fontColor=#0066CC;verticalAlign=top;verticalLabelPosition=bottom;labelPosition=center;align=center;html=1;outlineConnect=0;fillColor=#CCCCCC;strokeColor=#6881B3;gradientColor=none;gradientDirection=north;strokeWidth=2;shape=mxgraph.networks.pc;" vertex="1" parent="1">
          <mxGeometry x="1240" y="520" width="100" height="70" as="geometry" />
        </mxCell>
        <mxCell id="-cAsw4MHfbUnXaxIR6gj-3" value="" style="fontColor=#0066CC;verticalAlign=top;verticalLabelPosition=bottom;labelPosition=center;align=center;html=1;outlineConnect=0;fillColor=#CCCCCC;strokeColor=#6881B3;gradientColor=none;gradientDirection=north;strokeWidth=2;shape=mxgraph.networks.pc;" vertex="1" parent="1">
          <mxGeometry x="1530" y="310" width="100" height="70" as="geometry" />
        </mxCell>
        <mxCell id="-cAsw4MHfbUnXaxIR6gj-4" value="" style="fontColor=#0066CC;verticalAlign=top;verticalLabelPosition=bottom;labelPosition=center;align=center;html=1;outlineConnect=0;fillColor=#CCCCCC;strokeColor=#6881B3;gradientColor=none;gradientDirection=north;strokeWidth=2;shape=mxgraph.networks.pc;" vertex="1" parent="1">
          <mxGeometry x="940" y="310" width="100" height="70" as="geometry" />
        </mxCell>
        <mxCell id="-cAsw4MHfbUnXaxIR6gj-5" value="" style="fontColor=#0066CC;verticalAlign=top;verticalLabelPosition=bottom;labelPosition=center;align=center;html=1;outlineConnect=0;fillColor=#CCCCCC;strokeColor=#6881B3;gradientColor=none;gradientDirection=north;strokeWidth=2;shape=mxgraph.networks.pc;" vertex="1" parent="1">
          <mxGeometry x="1050" y="150" width="100" height="70" as="geometry" />
        </mxCell>
        <mxCell id="-cAsw4MHfbUnXaxIR6gj-6" value="" style="fontColor=#0066CC;verticalAlign=top;verticalLabelPosition=bottom;labelPosition=center;align=center;html=1;outlineConnect=0;fillColor=#CCCCCC;strokeColor=#6881B3;gradientColor=none;gradientDirection=north;strokeWidth=2;shape=mxgraph.networks.pc;" vertex="1" parent="1">
          <mxGeometry x="1440" y="150" width="100" height="70" as="geometry" />
        </mxCell>
        <mxCell id="-cAsw4MHfbUnXaxIR6gj-7" value="" style="fontColor=#0066CC;verticalAlign=top;verticalLabelPosition=bottom;labelPosition=center;align=center;html=1;outlineConnect=0;fillColor=#CCCCCC;strokeColor=#6881B3;gradientColor=none;gradientDirection=north;strokeWidth=2;shape=mxgraph.networks.pc;" vertex="1" parent="1">
          <mxGeometry x="1050" y="425" width="100" height="70" as="geometry" />
        </mxCell>
        <mxCell id="-cAsw4MHfbUnXaxIR6gj-8" value="" style="fontColor=#0066CC;verticalAlign=top;verticalLabelPosition=bottom;labelPosition=center;align=center;html=1;outlineConnect=0;fillColor=#CCCCCC;strokeColor=#6881B3;gradientColor=none;gradientDirection=north;strokeWidth=2;shape=mxgraph.networks.pc;" vertex="1" parent="1">
          <mxGeometry x="1440" y="425" width="100" height="70" as="geometry" />
        </mxCell>
        <mxCell id="-cAsw4MHfbUnXaxIR6gj-12" value="" style="endArrow=classic;startArrow=classic;html=1;rounded=0;" edge="1" parent="1" source="-cAsw4MHfbUnXaxIR6gj-5" target="-cAsw4MHfbUnXaxIR6gj-1">
          <mxGeometry width="50" height="50" relative="1" as="geometry">
            <mxPoint x="1380" y="350" as="sourcePoint" />
            <mxPoint x="1430" y="300" as="targetPoint" />
          </mxGeometry>
        </mxCell>
        <mxCell id="-cAsw4MHfbUnXaxIR6gj-13" value="" style="endArrow=classic;startArrow=classic;html=1;rounded=0;" edge="1" parent="1" source="-cAsw4MHfbUnXaxIR6gj-5" target="-cAsw4MHfbUnXaxIR6gj-4">
          <mxGeometry width="50" height="50" relative="1" as="geometry">
            <mxPoint x="1160" y="174" as="sourcePoint" />
            <mxPoint x="1250" y="136" as="targetPoint" />
          </mxGeometry>
        </mxCell>
        <mxCell id="-cAsw4MHfbUnXaxIR6gj-14" value="" style="endArrow=classic;startArrow=classic;html=1;rounded=0;" edge="1" parent="1" source="-cAsw4MHfbUnXaxIR6gj-4" target="-cAsw4MHfbUnXaxIR6gj-7">
          <mxGeometry width="50" height="50" relative="1" as="geometry">
            <mxPoint x="1170" y="184" as="sourcePoint" />
            <mxPoint x="1260" y="146" as="targetPoint" />
          </mxGeometry>
        </mxCell>
        <mxCell id="-cAsw4MHfbUnXaxIR6gj-15" value="" style="endArrow=classic;startArrow=classic;html=1;rounded=0;" edge="1" parent="1" source="-cAsw4MHfbUnXaxIR6gj-2" target="-cAsw4MHfbUnXaxIR6gj-7">
          <mxGeometry width="50" height="50" relative="1" as="geometry">
            <mxPoint x="1180" y="194" as="sourcePoint" />
            <mxPoint x="1270" y="156" as="targetPoint" />
          </mxGeometry>
        </mxCell>
        <mxCell id="-cAsw4MHfbUnXaxIR6gj-16" value="" style="endArrow=classic;startArrow=classic;html=1;rounded=0;" edge="1" parent="1" source="-cAsw4MHfbUnXaxIR6gj-8" target="-cAsw4MHfbUnXaxIR6gj-2">
          <mxGeometry width="50" height="50" relative="1" as="geometry">
            <mxPoint x="1190" y="204" as="sourcePoint" />
            <mxPoint x="1280" y="166" as="targetPoint" />
          </mxGeometry>
        </mxCell>
        <mxCell id="-cAsw4MHfbUnXaxIR6gj-17" value="" style="endArrow=classic;startArrow=classic;html=1;rounded=0;" edge="1" parent="1" source="-cAsw4MHfbUnXaxIR6gj-3" target="-cAsw4MHfbUnXaxIR6gj-8">
          <mxGeometry width="50" height="50" relative="1" as="geometry">
            <mxPoint x="1200" y="214" as="sourcePoint" />
            <mxPoint x="1290" y="176" as="targetPoint" />
          </mxGeometry>
        </mxCell>
        <mxCell id="-cAsw4MHfbUnXaxIR6gj-18" value="" style="endArrow=classic;startArrow=classic;html=1;rounded=0;" edge="1" parent="1" source="-cAsw4MHfbUnXaxIR6gj-6" target="-cAsw4MHfbUnXaxIR6gj-3">
          <mxGeometry width="50" height="50" relative="1" as="geometry">
            <mxPoint x="1210" y="224" as="sourcePoint" />
            <mxPoint x="1300" y="186" as="targetPoint" />
          </mxGeometry>
        </mxCell>
        <mxCell id="-cAsw4MHfbUnXaxIR6gj-19" value="" style="endArrow=classic;startArrow=classic;html=1;rounded=0;" edge="1" parent="1" source="-cAsw4MHfbUnXaxIR6gj-1" target="-cAsw4MHfbUnXaxIR6gj-6">
          <mxGeometry width="50" height="50" relative="1" as="geometry">
            <mxPoint x="1180" y="249" as="sourcePoint" />
            <mxPoint x="1400" y="200" as="targetPoint" />
          </mxGeometry>
        </mxCell>
      </root>
    </mxGraphModel>
  </diagram>
</mxfile>
